<mxfile host="65bd71144e" scale="5" border="0">
    <diagram id="zK5Rt0_C5VV_g-sW-Zkf" name="Page-1">
        <mxGraphModel dx="3434" dy="1478" grid="0" gridSize="10" guides="1" tooltips="1" connect="1" arrows="1" fold="1" page="1" pageScale="1" pageWidth="1169" pageHeight="827" background="#FFFFFF" math="1" shadow="0">
            <root>
                <mxCell id="0"/>
                <mxCell id="1" parent="0"/>
                <mxCell id="114" value="&lt;font style=&quot;font-size: 60px;&quot;&gt;$$ (\hat Z _{1}^s) $$&lt;/font&gt;" style="text;html=1;strokeColor=none;fillColor=none;align=center;verticalAlign=middle;whiteSpace=wrap;rounded=0;strokeWidth=4;fontSize=60;fontFamily=Times New Roman;fontColor=#FF66FF;" parent="1" vertex="1">
                    <mxGeometry x="1253" y="176" width="126.8" height="97.7" as="geometry"/>
                </mxCell>
                <mxCell id="100" value="$$ \hat Z _{0}^s $$" style="text;html=1;strokeColor=none;fillColor=none;align=center;verticalAlign=middle;whiteSpace=wrap;rounded=0;strokeWidth=4;fontSize=60;fontFamily=Times New Roman;opacity=90;" parent="1" vertex="1">
                    <mxGeometry x="1155.92" y="176" width="124.08" height="98.25" as="geometry"/>
                </mxCell>
                <mxCell id="102" value="&lt;font style=&quot;font-size: 60px;&quot;&gt;$$ \hat X _{1}^s $$&lt;/font&gt;" style="text;html=1;strokeColor=none;fillColor=none;align=center;verticalAlign=middle;whiteSpace=wrap;rounded=0;strokeWidth=4;fontSize=60;fontFamily=Times New Roman;fontColor=#FF66FF;" parent="1" vertex="1">
                    <mxGeometry x="907" y="589" width="111" height="91.24" as="geometry"/>
                </mxCell>
                <mxCell id="103" value="" style="endArrow=blockThin;html=1;strokeColor=#FF66FF;strokeWidth=2;fontSize=60;fontFamily=Times New Roman;endSize=30;endFill=1;" parent="1" edge="1">
                    <mxGeometry width="50" height="50" relative="1" as="geometry">
                        <mxPoint x="1153.08" y="527.9999999999999" as="sourcePoint"/>
                        <mxPoint x="941.88" y="584.6497461928933" as="targetPoint"/>
                    </mxGeometry>
                </mxCell>
                <mxCell id="106" value="" style="endArrow=blockThin;html=1;strokeWidth=4;fontSize=60;fontFamily=Times New Roman;endSize=30;endFill=1;" parent="1" edge="1">
                    <mxGeometry width="50" height="50" relative="1" as="geometry">
                        <mxPoint x="901" y="532" as="sourcePoint"/>
                        <mxPoint x="1429" y="528" as="targetPoint"/>
                    </mxGeometry>
                </mxCell>
                <mxCell id="107" value="" style="endArrow=blockThin;html=1;strokeWidth=4;fontSize=60;fontFamily=Times New Roman;endSize=30;endFill=1;" parent="1" edge="1">
                    <mxGeometry width="50" height="50" relative="1" as="geometry">
                        <mxPoint x="1155.7200000000003" y="528.0000000000009" as="sourcePoint"/>
                        <mxPoint x="1018.44" y="710.5380710659898" as="targetPoint"/>
                    </mxGeometry>
                </mxCell>
                <mxCell id="108" value="" style="endArrow=blockThin;html=1;strokeWidth=4;fontSize=60;fontFamily=Times New Roman;endFill=1;endSize=30;" parent="1" edge="1">
                    <mxGeometry width="50" height="50" relative="1" as="geometry">
                        <mxPoint x="1155.7200000000003" y="528.0000000000009" as="sourcePoint"/>
                        <mxPoint x="1155.7200000000003" y="181.80710659898483" as="targetPoint"/>
                    </mxGeometry>
                </mxCell>
                <mxCell id="110" value="" style="curved=1;endArrow=classic;html=1;strokeColor=#000000;strokeWidth=4;fontFamily=Comic Sans MS;fontSize=60;fontColor=#000000;endSize=4;endFill=1;edgeStyle=orthogonalEdgeStyle;" parent="1" edge="1">
                    <mxGeometry width="50" height="50" relative="1" as="geometry">
                        <mxPoint x="1102.032864864865" y="606.2661596958169" as="sourcePoint"/>
                        <mxPoint x="1041.7290810810812" y="555.5817490494296" as="targetPoint"/>
                    </mxGeometry>
                </mxCell>
                <mxCell id="111" value="$$\Phi_2$$" style="text;html=1;strokeColor=none;fillColor=none;align=center;verticalAlign=middle;whiteSpace=wrap;rounded=0;fillStyle=hatch;strokeWidth=4;fontFamily=Comic Sans MS;fontSize=60;fontColor=#000000;" parent="1" vertex="1">
                    <mxGeometry x="1050.711945945946" y="531.7706463878326" width="65.78594594594597" height="35.361216730038024" as="geometry"/>
                </mxCell>
                <mxCell id="112" value="$$ \{0\} $$" style="text;html=1;strokeColor=none;fillColor=none;align=center;verticalAlign=middle;whiteSpace=wrap;rounded=0;strokeWidth=4;fontSize=60;fontFamily=Times New Roman;connectable=0;" parent="1" vertex="1">
                    <mxGeometry x="1172" y="424.62" width="93.21" height="92.4" as="geometry"/>
                </mxCell>
                <mxCell id="115" value="" style="endArrow=none;dashed=1;html=1;strokeColor=#FF3333;fontSize=26;fontColor=#FF0000;strokeWidth=4;" parent="1" edge="1">
                    <mxGeometry width="50" height="50" relative="1" as="geometry">
                        <mxPoint x="1151.0000000000002" y="278" as="sourcePoint"/>
                        <mxPoint x="1071.0000000000002" y="278" as="targetPoint"/>
                    </mxGeometry>
                </mxCell>
                <mxCell id="31" value="" style="endArrow=none;dashed=1;html=1;strokeColor=#FF3333;fontSize=26;fontColor=#FF0000;strokeWidth=4;" parent="1" edge="1">
                    <mxGeometry width="50" height="50" relative="1" as="geometry">
                        <mxPoint x="1068" y="280" as="sourcePoint"/>
                        <mxPoint x="1012" y="305" as="targetPoint"/>
                    </mxGeometry>
                </mxCell>
                <mxCell id="28" value="" style="endArrow=none;dashed=1;html=1;strokeColor=#FF3333;fontSize=26;fontColor=#FF0000;strokeWidth=4;" parent="1" edge="1">
                    <mxGeometry width="50" height="50" relative="1" as="geometry">
                        <mxPoint x="1013" y="560" as="sourcePoint"/>
                        <mxPoint x="1013" y="302" as="targetPoint"/>
                    </mxGeometry>
                </mxCell>
                <mxCell id="116" value="" style="endArrow=blockThin;html=1;strokeWidth=4;fontSize=60;fontFamily=Times New Roman;endFill=1;endSize=30;exitX=0.371;exitY=-0.032;exitDx=0;exitDy=0;exitPerimeter=0;strokeColor=#6666FF;" parent="1" edge="1">
                    <mxGeometry width="50" height="50" relative="1" as="geometry">
                        <mxPoint x="1155.037697945946" y="527.5096577946761" as="sourcePoint"/>
                        <mxPoint x="1028" y="182" as="targetPoint"/>
                    </mxGeometry>
                </mxCell>
                <mxCell id="117" value="" style="endArrow=blockThin;html=1;strokeWidth=4;fontSize=60;fontFamily=Times New Roman;endFill=1;endSize=30;exitX=0.376;exitY=-0.001;exitDx=0;exitDy=0;exitPerimeter=0;strokeColor=#00CC00;" parent="1" edge="1">
                    <mxGeometry width="50" height="50" relative="1" as="geometry">
                        <mxPoint x="1155.7668255135136" y="531.6386692015203" as="sourcePoint"/>
                        <mxPoint x="951" y="208" as="targetPoint"/>
                    </mxGeometry>
                </mxCell>
                <mxCell id="118" value="$$\theta_3$$" style="text;html=1;strokeColor=none;fillColor=none;align=center;verticalAlign=middle;whiteSpace=wrap;rounded=0;fillStyle=hatch;strokeWidth=4;fontFamily=Comic Sans MS;fontSize=60;fontColor=#000000;" parent="1" vertex="1">
                    <mxGeometry x="1080.6822260569459" y="232.786323809789" width="66.53130509809806" height="31.713961626764178" as="geometry"/>
                </mxCell>
                <mxCell id="122" value="" style="verticalLabelPosition=bottom;verticalAlign=top;html=1;shape=mxgraph.basic.arc;startAngle=0.33428680245622105;endAngle=0.6027465788531776;fillStyle=hatch;strokeColor=#000000;strokeWidth=4;fontFamily=Comic Sans MS;fontSize=60;fontColor=#000000;fillColor=#FFFFFF;rotation=-195;" parent="1" vertex="1">
                    <mxGeometry x="1067.0019047619048" y="355.00489051094905" width="127.21088435374146" height="118.6131386861314" as="geometry"/>
                </mxCell>
                <mxCell id="123" value="" style="verticalLabelPosition=bottom;verticalAlign=top;html=1;shape=mxgraph.basic.arc;startAngle=0.341548402380875;endAngle=0.5532100345706658;fillStyle=hatch;strokeColor=#000000;strokeWidth=4;fontFamily=Comic Sans MS;fontSize=60;fontColor=#000000;fillColor=#FFFFFF;rotation=-165;" parent="1" vertex="1">
                    <mxGeometry x="1057.0019047619048" y="306.00489051094905" width="127.21088435374146" height="118.6131386861314" as="geometry"/>
                </mxCell>
                <mxCell id="125" value="$$\theta_4$$" style="text;html=1;strokeColor=none;fillColor=none;align=center;verticalAlign=middle;whiteSpace=wrap;rounded=0;fillStyle=hatch;strokeWidth=4;fontFamily=Comic Sans MS;fontSize=60;fontColor=#000000;" parent="1" vertex="1">
                    <mxGeometry x="997.0004065436793" y="242.0427731698486" width="62.709851408421244" height="31.66010592014514" as="geometry"/>
                </mxCell>
                <mxCell id="124" value="" style="verticalLabelPosition=bottom;verticalAlign=top;html=1;shape=mxgraph.basic.arc;startAngle=0.4287749838213742;endAngle=0.5532100345706658;fillStyle=hatch;strokeColor=#000000;strokeWidth=4;fontFamily=Comic Sans MS;fontSize=60;fontColor=#000000;fillColor=#FFFFFF;rotation=-210;" parent="1" vertex="1">
                    <mxGeometry x="1020.0019047619048" y="311.38489051094905" width="127.21088435374146" height="118.6131386861314" as="geometry"/>
                </mxCell>
                <mxCell id="126" value="$$ks_2$$" style="text;html=1;strokeColor=none;fillColor=none;align=center;verticalAlign=middle;whiteSpace=wrap;rounded=0;fillStyle=hatch;strokeWidth=4;fontFamily=Comic Sans MS;fontSize=60;fontColor=#000000;connectable=0;" parent="1" vertex="1">
                    <mxGeometry x="906.9952380952382" y="385.6260583941607" width="76.3265306122449" height="35.58394160583942" as="geometry"/>
                </mxCell>
                <mxCell id="127" value="" style="endArrow=classic;html=1;strokeColor=#000000;strokeWidth=4;" parent="1" edge="1">
                    <mxGeometry width="50" height="50" relative="1" as="geometry">
                        <mxPoint x="989" y="403" as="sourcePoint"/>
                        <mxPoint x="1067" y="389" as="targetPoint"/>
                    </mxGeometry>
                </mxCell>
                <mxCell id="129" value="$$ \hat Y _{0}^s $$" style="text;html=1;strokeColor=none;fillColor=none;align=center;verticalAlign=middle;whiteSpace=wrap;rounded=0;strokeWidth=4;fontSize=48;fontFamily=Times New Roman;opacity=90;connectable=0;" parent="1" vertex="1">
                    <mxGeometry x="1280.000694143167" y="510.00406091370564" width="160.11930585683294" height="120.68629441624364" as="geometry"/>
                </mxCell>
                <mxCell id="130" value="$$ \hat X _{0} ^s$$" style="text;html=1;strokeColor=none;fillColor=none;align=center;verticalAlign=middle;whiteSpace=wrap;rounded=0;strokeWidth=4;fontSize=48;fontFamily=Times New Roman;" parent="1" vertex="1">
                    <mxGeometry x="1044" y="622.2" width="133" height="113" as="geometry"/>
                </mxCell>
                <mxCell id="131" value="$$ (\hat Z _{2}^m) $$" style="text;html=1;strokeColor=none;fillColor=none;align=center;verticalAlign=middle;whiteSpace=wrap;rounded=0;strokeWidth=4;fontSize=60;fontFamily=Times New Roman;fontColor=#FF9933;rotation=0;" parent="1" vertex="1">
                    <mxGeometry x="871" y="227.00947052689418" width="86.07285489709827" height="68.70852935698034" as="geometry"/>
                </mxCell>
                <mxCell id="132" value="$$ \hat Z _{1}^m $$" style="text;html=1;strokeColor=none;fillColor=none;align=center;verticalAlign=middle;whiteSpace=wrap;rounded=0;strokeWidth=4;fontSize=60;fontFamily=Times New Roman;fontColor=#6666FF;rotation=0;" parent="1" vertex="1">
                    <mxGeometry x="1050.7099999999998" y="137.17" width="83.29568788501027" height="66.49256198347113" as="geometry"/>
                </mxCell>
                <mxCell id="133" value="&lt;font style=&quot;font-size: 60px;&quot;&gt;$$ \hat Z _{2}^s $$&lt;/font&gt;" style="text;html=1;strokeColor=none;fillColor=none;align=center;verticalAlign=middle;whiteSpace=wrap;rounded=0;strokeWidth=4;fontSize=60;fontFamily=Times New Roman;fontColor=#00CC00;connectable=0;" parent="1" vertex="1">
                    <mxGeometry x="746" y="203.66" width="136" height="115.41" as="geometry"/>
                </mxCell>
                <mxCell id="136" value="$$ \hat Y _{0}^s $$" style="text;html=1;strokeColor=none;fillColor=none;align=center;verticalAlign=middle;whiteSpace=wrap;rounded=0;strokeWidth=4;fontSize=48;fontFamily=Times New Roman;opacity=90;connectable=0;" parent="1" vertex="1">
                    <mxGeometry x="1280.000694143167" y="510.00406091370564" width="160.11930585683294" height="120.68629441624364" as="geometry"/>
                </mxCell>
                <mxCell id="148" value="" style="endArrow=blockThin;html=1;strokeWidth=4;fontSize=60;fontFamily=Times New Roman;endSize=30;endFill=1;" parent="1" edge="1">
                    <mxGeometry width="50" height="50" relative="1" as="geometry">
                        <mxPoint x="1756.2800000000002" y="499.49" as="sourcePoint"/>
                        <mxPoint x="2029.56" y="499.49" as="targetPoint"/>
                    </mxGeometry>
                </mxCell>
                <mxCell id="149" value="" style="endArrow=blockThin;html=1;strokeWidth=4;fontSize=60;fontFamily=Times New Roman;endSize=30;endFill=1;" parent="1" edge="1">
                    <mxGeometry width="50" height="50" relative="1" as="geometry">
                        <mxPoint x="1756.2800000000002" y="499.4900000000009" as="sourcePoint"/>
                        <mxPoint x="1619" y="682.0280710659897" as="targetPoint"/>
                    </mxGeometry>
                </mxCell>
                <mxCell id="150" value="" style="endArrow=blockThin;html=1;strokeWidth=4;fontSize=60;fontFamily=Times New Roman;endFill=1;endSize=30;" parent="1" edge="1">
                    <mxGeometry width="50" height="50" relative="1" as="geometry">
                        <mxPoint x="1756.2800000000002" y="499.4900000000009" as="sourcePoint"/>
                        <mxPoint x="1756.2800000000002" y="153.29710659898478" as="targetPoint"/>
                    </mxGeometry>
                </mxCell>
                <mxCell id="151" value="$$ \{0\} $$" style="text;html=1;strokeColor=none;fillColor=none;align=center;verticalAlign=middle;whiteSpace=wrap;rounded=0;strokeWidth=4;fontSize=60;fontFamily=Times New Roman;" parent="1" vertex="1">
                    <mxGeometry x="1641.79" y="443" width="93.21" height="92.4" as="geometry"/>
                </mxCell>
                <mxCell id="152" value="$$ \hat X _{0} ^s$$" style="text;html=1;strokeColor=none;fillColor=none;align=center;verticalAlign=middle;whiteSpace=wrap;rounded=0;strokeWidth=4;fontSize=48;fontFamily=Times New Roman;" parent="1" vertex="1">
                    <mxGeometry x="1597" y="554" width="84.44" height="66.69" as="geometry"/>
                </mxCell>
                <mxCell id="153" value="$$ \hat Y _{0}^s $$" style="text;html=1;strokeColor=none;fillColor=none;align=center;verticalAlign=middle;whiteSpace=wrap;rounded=0;strokeWidth=4;fontSize=48;fontFamily=Times New Roman;opacity=90;connectable=0;" parent="1" vertex="1">
                    <mxGeometry x="1917" y="500" width="93.44" height="79.69" as="geometry"/>
                </mxCell>
                <mxCell id="172" value="&lt;font style=&quot;font-size: 60px;&quot;&gt;$$ \hat X _{2}^s $$&lt;/font&gt;" style="text;html=1;strokeColor=none;fillColor=none;align=center;verticalAlign=middle;whiteSpace=wrap;rounded=0;strokeWidth=4;fontSize=60;fontFamily=Times New Roman;fontColor=#00CC00;connectable=0;" parent="1" vertex="1">
                    <mxGeometry x="1496" y="579.6878475336323" width="134.52173913043478" height="115.40695067264573" as="geometry"/>
                </mxCell>
                <mxCell id="173" value="" style="endArrow=blockThin;html=1;strokeColor=#00CC00;strokeWidth=2;fontSize=48;fontFamily=Times New Roman;endSize=30;endFill=1;fontColor=#00CC00;" parent="1" edge="1">
                    <mxGeometry width="50" height="50" relative="1" as="geometry">
                        <mxPoint x="1756.1510297482837" y="500.7488789237668" as="sourcePoint"/>
                        <mxPoint x="1560" y="710" as="targetPoint"/>
                    </mxGeometry>
                </mxCell>
                <mxCell id="174" value="&lt;font style=&quot;font-size: 60px;&quot;&gt;$$ \hat Y _{2}^s $$&lt;/font&gt;" style="text;html=1;strokeColor=none;fillColor=none;align=center;verticalAlign=middle;whiteSpace=wrap;rounded=0;strokeWidth=4;fontSize=60;fontFamily=Times New Roman;fontColor=#00CC00;connectable=0;" parent="1" vertex="1">
                    <mxGeometry x="1819.9982608695652" y="573.9975784753362" width="134.52173913043478" height="115.40695067264573" as="geometry"/>
                </mxCell>
                <mxCell id="175" value="" style="endArrow=blockThin;html=1;strokeColor=#00CC00;strokeWidth=2;fontSize=48;fontFamily=Times New Roman;endSize=30;orthogonal=0;endFill=1;" parent="1" edge="1">
                    <mxGeometry width="50" height="50" relative="1" as="geometry">
                        <mxPoint x="1756.1491719983187" y="497.6809520146644" as="sourcePoint"/>
                        <mxPoint x="1949" y="610" as="targetPoint"/>
                    </mxGeometry>
                </mxCell>
                <mxCell id="177" value="&lt;font style=&quot;font-size: 60px;&quot;&gt;$$ (\hat Z _{2}^s) $$&lt;/font&gt;" style="text;html=1;strokeColor=none;fillColor=none;align=center;verticalAlign=middle;whiteSpace=wrap;rounded=0;strokeWidth=4;fontSize=60;fontFamily=Times New Roman;fontColor=#00CC00;connectable=0;" parent="1" vertex="1">
                    <mxGeometry x="1610.9983066361556" y="264.50520179372194" width="134.52173913043478" height="115.40695067264573" as="geometry"/>
                </mxCell>
                <mxCell id="155" value="" style="endArrow=blockThin;html=1;strokeWidth=4;fontSize=60;fontFamily=Times New Roman;endSize=30;endFill=1;strokeColor=#FF9933;" parent="1" edge="1">
                    <mxGeometry width="50" height="50" relative="1" as="geometry">
                        <mxPoint x="1756.58" y="499.95000000000005" as="sourcePoint"/>
                        <mxPoint x="1932" y="399" as="targetPoint"/>
                    </mxGeometry>
                </mxCell>
                <mxCell id="156" value="" style="endArrow=blockThin;html=1;strokeWidth=4;fontSize=60;fontFamily=Times New Roman;endFill=1;endSize=30;strokeColor=#FF9933;" parent="1" edge="1">
                    <mxGeometry width="50" height="50" relative="1" as="geometry">
                        <mxPoint x="1756.58" y="497.95000000000005" as="sourcePoint"/>
                        <mxPoint x="1610.58" y="345.2" as="targetPoint"/>
                    </mxGeometry>
                </mxCell>
                <mxCell id="157" value="" style="endArrow=blockThin;html=1;strokeWidth=4;fontSize=48;fontFamily=Times New Roman;endSize=30;endFill=1;strokeColor=#FF9933;" parent="1" edge="1">
                    <mxGeometry width="50" height="50" relative="1" as="geometry">
                        <mxPoint x="1756.58" y="496.95000000000005" as="sourcePoint"/>
                        <mxPoint x="1665.58" y="684.2" as="targetPoint"/>
                    </mxGeometry>
                </mxCell>
                <mxCell id="158" value="$$ \hat Y _{2}^m $$" style="text;html=1;strokeColor=none;fillColor=none;align=center;verticalAlign=middle;whiteSpace=wrap;rounded=0;strokeWidth=4;fontSize=60;fontFamily=Times New Roman;fontColor=#FF9933;rotation=0;connectable=0;" parent="1" vertex="1">
                    <mxGeometry x="1809.78" y="311.2" width="93.58" height="89.24" as="geometry"/>
                </mxCell>
                <mxCell id="160" value="$$ \hat X _{2} ^m$$" style="text;html=1;strokeColor=none;fillColor=none;align=center;verticalAlign=middle;whiteSpace=wrap;rounded=0;strokeWidth=4;fontSize=60;fontFamily=Times New Roman;fontColor=#FF9933;rotation=0;" parent="1" vertex="1">
                    <mxGeometry x="1698" y="646.4599999999999" width="83.29568788501027" height="66.49256198347113" as="geometry"/>
                </mxCell>
                <mxCell id="166" value="$$ \hat Z _{2}^m $$" style="text;html=1;strokeColor=none;fillColor=none;align=center;verticalAlign=middle;whiteSpace=wrap;rounded=0;strokeWidth=4;fontSize=60;fontFamily=Times New Roman;fontColor=#FF9933;rotation=0;" parent="1" vertex="1">
                    <mxGeometry x="1541" y="288.96" width="83.29568788501027" height="66.49256198347113" as="geometry"/>
                </mxCell>
                <mxCell id="180" value="$$ \hat Z _{0}^s $$" style="text;html=1;strokeColor=none;fillColor=none;align=center;verticalAlign=middle;whiteSpace=wrap;rounded=0;strokeWidth=4;fontSize=60;fontFamily=Times New Roman;opacity=90;" parent="1" vertex="1">
                    <mxGeometry x="1764" y="151" width="124.08" height="98.25" as="geometry"/>
                </mxCell>
                <mxCell id="181" value="$$\Phi_2$$" style="text;html=1;strokeColor=none;fillColor=none;align=center;verticalAlign=middle;whiteSpace=wrap;rounded=0;fillStyle=hatch;strokeWidth=4;fontFamily=Comic Sans MS;fontSize=60;fontColor=#000000;" parent="1" vertex="1">
                    <mxGeometry x="1759.7119459459461" y="531.0006463878326" width="65.78594594594597" height="35.361216730038024" as="geometry"/>
                </mxCell>
                <mxCell id="182" value="" style="verticalLabelPosition=bottom;verticalAlign=top;html=1;shape=mxgraph.basic.arc;startAngle=0.4656090085310912;endAngle=0.6027465788531776;fillStyle=hatch;strokeColor=#000000;strokeWidth=4;fontFamily=Comic Sans MS;fontSize=60;fontColor=#000000;fillColor=#FFFFFF;rotation=110;direction=west;" parent="1" vertex="1">
                    <mxGeometry x="1729.0019047619048" y="431.38489051094905" width="127.21088435374146" height="118.6131386861314" as="geometry"/>
                </mxCell>
                <mxCell id="183" value="" style="verticalLabelPosition=bottom;verticalAlign=top;html=1;shape=mxgraph.basic.arc;startAngle=0.4228929427748333;endAngle=0.5648444748932708;fillStyle=hatch;strokeColor=#000000;strokeWidth=4;fontFamily=Comic Sans MS;fontSize=60;fontColor=#000000;fillColor=#FFFFFF;rotation=75;direction=west;" parent="1" vertex="1">
                    <mxGeometry x="1740.0019047619048" y="431.38489051094905" width="127.21088435374146" height="118.6131386861314" as="geometry"/>
                </mxCell>
                <mxCell id="184" value="" style="verticalLabelPosition=bottom;verticalAlign=top;html=1;shape=mxgraph.basic.arc;startAngle=0.3480187471529436;endAngle=0.6582670345672316;fillStyle=hatch;strokeColor=#000000;strokeWidth=4;fontFamily=Comic Sans MS;fontSize=60;fontColor=#000000;fillColor=#FFFFFF;rotation=95;direction=west;" parent="1" vertex="1">
                    <mxGeometry x="1754.39" y="427.39" width="142.17" height="126.5" as="geometry"/>
                </mxCell>
                <mxCell id="185" value="$$\theta_3$$" style="text;html=1;strokeColor=none;fillColor=none;align=center;verticalAlign=middle;whiteSpace=wrap;rounded=0;fillStyle=hatch;strokeWidth=4;fontFamily=Comic Sans MS;fontSize=60;fontColor=#000000;" parent="1" vertex="1">
                    <mxGeometry x="1792.2122260569458" y="442.996323809789" width="66.53130509809806" height="31.713961626764178" as="geometry"/>
                </mxCell>
                <mxCell id="187" value="$$ \Delta x $$" style="text;html=1;strokeColor=none;fillColor=none;align=center;verticalAlign=middle;whiteSpace=wrap;rounded=0;fontSize=60;connectable=0;" parent="1" vertex="1">
                    <mxGeometry x="1945" y="422.62" width="60" height="30" as="geometry"/>
                </mxCell>
                <mxCell id="188" value="" style="endArrow=classic;html=1;strokeColor=#000000;strokeWidth=4;fontSize=60;" parent="1" edge="1">
                    <mxGeometry width="50" height="50" relative="1" as="geometry">
                        <mxPoint x="1928" y="455" as="sourcePoint"/>
                        <mxPoint x="1896" y="473" as="targetPoint"/>
                    </mxGeometry>
                </mxCell>
                <mxCell id="205" value="" style="group" vertex="1" connectable="0" parent="1">
                    <mxGeometry x="34" y="212" width="677" height="463" as="geometry"/>
                </mxCell>
                <mxCell id="189" value="" style="shape=parallelogram;perimeter=parallelogramPerimeter;whiteSpace=wrap;html=1;fixedSize=1;size=91;fillColor=#d5e8d4;strokeColor=#66B2FF;strokeWidth=3;connectable=0;" vertex="1" parent="205">
                    <mxGeometry x="5.409817351598174" y="160.36976793721266" width="677.0000000000001" height="300.14321967888645" as="geometry"/>
                </mxCell>
                <mxCell id="190" value="" style="endArrow=none;html=1;strokeWidth=4;" edge="1" parent="205">
                    <mxGeometry width="50" height="50" relative="1" as="geometry">
                        <mxPoint x="224.46631205673765" y="293.87278574838564" as="sourcePoint"/>
                        <mxPoint x="439.3297872340426" y="61.64569461544261" as="targetPoint"/>
                    </mxGeometry>
                </mxCell>
                <mxCell id="191" value="" style="endArrow=none;html=1;strokeWidth=4;" edge="1" parent="205">
                    <mxGeometry width="50" height="50" relative="1" as="geometry">
                        <mxPoint x="228.06737588652487" y="293.15151134450616" as="sourcePoint"/>
                        <mxPoint x="505.34929078014187" y="295.47820296992387" as="targetPoint"/>
                    </mxGeometry>
                </mxCell>
                <mxCell id="193" value="" style="endArrow=none;html=1;strokeWidth=4;" edge="1" parent="205">
                    <mxGeometry width="50" height="50" relative="1" as="geometry">
                        <mxPoint x="224.46631205673765" y="294.31485715721504" as="sourcePoint"/>
                        <mxPoint x="432.1276595744681" y="426.93627980602525" as="targetPoint"/>
                    </mxGeometry>
                </mxCell>
                <mxCell id="194" value="" style="endArrow=none;html=1;dashed=1;dashPattern=8 8;startArrow=none;strokeWidth=4;" edge="1" parent="205" source="203">
                    <mxGeometry width="50" height="50" relative="1" as="geometry">
                        <mxPoint x="440.53014184397176" y="60.8429860046735" as="sourcePoint"/>
                        <mxPoint x="435.7287234042554" y="294.31485715721504" as="targetPoint"/>
                    </mxGeometry>
                </mxCell>
                <mxCell id="195" value="" style="endArrow=none;html=1;strokeWidth=4;" edge="1" parent="205">
                    <mxGeometry width="50" height="50" relative="1" as="geometry">
                        <mxPoint x="324.0957446808511" y="355.97218523078476" as="sourcePoint"/>
                        <mxPoint x="435.7287234042554" y="295.47820296992387" as="targetPoint"/>
                    </mxGeometry>
                </mxCell>
                <mxCell id="196" value="" style="verticalLabelPosition=bottom;verticalAlign=top;html=1;shape=mxgraph.basic.arc;startAngle=0.3382207780133689;endAngle=0.6027465788531776;fillStyle=hatch;strokeColor=#000000;strokeWidth=4;fontFamily=Comic Sans MS;fontSize=60;fontColor=#000000;fillColor=#FFFFFF;rotation=-85;" vertex="1" parent="205">
                    <mxGeometry x="157.24645390070927" y="214.04399608030354" width="167.00533687943263" height="149.5364707655971" as="geometry"/>
                </mxCell>
                <mxCell id="197" value="" style="verticalLabelPosition=bottom;verticalAlign=top;html=1;shape=mxgraph.basic.arc;startAngle=0.47011675808780556;endAngle=0.588017688021824;fillStyle=hatch;strokeColor=#000000;strokeWidth=4;fontFamily=Comic Sans MS;fontSize=60;fontColor=#000000;fillColor=#FFFFFF;rotation=-120;" vertex="1" parent="205">
                    <mxGeometry x="133.2393617021277" y="214.04399608030354" width="167.00533687943263" height="149.5364707655971" as="geometry"/>
                </mxCell>
                <mxCell id="198" value="" style="verticalLabelPosition=bottom;verticalAlign=top;html=1;shape=mxgraph.basic.arc;startAngle=0.4927706605486116;endAngle=0.5533443708486112;fillStyle=hatch;strokeColor=#000000;strokeWidth=4;fontFamily=Comic Sans MS;fontSize=60;fontColor=#000000;fillColor=#FFFFFF;rotation=-75;" vertex="1" parent="205">
                    <mxGeometry x="117.63475177304969" y="201.75906429809794" width="167.00533687943263" height="149.5364707655971" as="geometry"/>
                </mxCell>
                <mxCell id="199" value="$$A$$" style="text;html=1;strokeColor=none;fillColor=none;align=center;verticalAlign=middle;whiteSpace=wrap;rounded=0;strokeWidth=3;fontSize=60;" vertex="1" parent="205">
                    <mxGeometry x="440.53014184397176" y="49.45356037151703" width="72.0212765957447" height="34.900374381265856" as="geometry"/>
                </mxCell>
                <mxCell id="200" value="$$B$$" style="text;html=1;strokeColor=none;fillColor=none;align=center;verticalAlign=middle;whiteSpace=wrap;rounded=0;strokeWidth=3;fontSize=60;" vertex="1" parent="205">
                    <mxGeometry x="133.2393617021277" y="274.5379783411644" width="72.0212765957447" height="34.900374381265856" as="geometry"/>
                </mxCell>
                <mxCell id="201" value="$$C$$" style="text;html=1;strokeColor=none;fillColor=none;align=center;verticalAlign=middle;whiteSpace=wrap;rounded=0;strokeWidth=3;fontSize=60;" vertex="1" parent="205">
                    <mxGeometry x="288.26647503157494" y="379.85878266384555" width="72.0212765957447" height="34.900374381265856" as="geometry"/>
                </mxCell>
                <mxCell id="202" value="$$O$$" style="text;html=1;strokeColor=none;fillColor=none;align=center;verticalAlign=middle;whiteSpace=wrap;rounded=0;strokeWidth=3;fontSize=60;" vertex="1" parent="205">
                    <mxGeometry x="454.4274528805986" y="259.0761765911632" width="72.0212765957447" height="34.900374381265856" as="geometry"/>
                </mxCell>
                <mxCell id="204" value="" style="endArrow=none;html=1;dashed=1;dashPattern=8 8;" edge="1" parent="205" target="203">
                    <mxGeometry width="50" height="50" relative="1" as="geometry">
                        <mxPoint x="440.53014184397176" y="60.84298600467342" as="sourcePoint"/>
                        <mxPoint x="435.7287234042554" y="294.31485715721504" as="targetPoint"/>
                    </mxGeometry>
                </mxCell>
                <mxCell id="203" value="" style="shape=ellipse;fillColor=#0065FF;strokeColor=none;html=1;sketch=0;strokeWidth=3;fontSize=60;" vertex="1" parent="205">
                    <mxGeometry x="434.5283687943263" y="54.31661599537677" width="12.003546099290784" height="11.633458127088621" as="geometry"/>
                </mxCell>
                <mxCell id="206" value="" style="shape=ellipse;fillColor=#0065FF;strokeColor=none;html=1;sketch=0;strokeWidth=3;fontSize=60;" vertex="1" parent="205">
                    <mxGeometry x="221.79889390848155" y="287.94526924615076" width="12.003546099290784" height="11.633458127088621" as="geometry"/>
                </mxCell>
                <mxCell id="207" value="" style="shape=ellipse;fillColor=#0065FF;strokeColor=none;html=1;sketch=0;strokeWidth=3;fontSize=60;" vertex="1" parent="205">
                    <mxGeometry x="428.52347153405236" y="290.09542404491236" width="12.003546099290784" height="11.633458127088621" as="geometry"/>
                </mxCell>
                <mxCell id="208" value="" style="shape=ellipse;fillColor=#0065FF;strokeColor=none;html=1;sketch=0;strokeWidth=3;fontSize=60;" vertex="1" parent="205">
                    <mxGeometry x="320.4971473331391" y="351.2959968003304" width="12.003546099290784" height="11.633458127088621" as="geometry"/>
                </mxCell>
                <mxCell id="209" value="$$\beta$$" style="text;html=1;strokeColor=none;fillColor=none;align=center;verticalAlign=middle;whiteSpace=wrap;rounded=0;strokeWidth=3;fontSize=60;" vertex="1" parent="205">
                    <mxGeometry x="302.4870596521909" y="253.04455108359133" width="72.0212765957447" height="34.900374381265856" as="geometry"/>
                </mxCell>
                <mxCell id="210" value="$$\alpha$$" style="text;html=1;strokeColor=none;fillColor=none;align=center;verticalAlign=middle;whiteSpace=wrap;rounded=0;strokeWidth=3;fontSize=60;" vertex="1" parent="205">
                    <mxGeometry x="238.80578111337812" y="245.66235294117647" width="72.0212765957447" height="34.900374381265856" as="geometry"/>
                </mxCell>
                <mxCell id="211" value="$$\gamma$$" style="text;html=1;strokeColor=none;fillColor=none;align=center;verticalAlign=middle;whiteSpace=wrap;rounded=0;strokeWidth=3;fontSize=60;" vertex="1" parent="205">
                    <mxGeometry x="212.622265131643" y="309.43594427244585" width="72.0212765957447" height="34.900374381265856" as="geometry"/>
                </mxCell>
                <mxCell id="212" value="$$ \Gamma $$" style="text;html=1;align=center;verticalAlign=middle;resizable=0;points=[];autosize=1;strokeColor=none;fillColor=none;fontSize=60;" vertex="1" parent="205">
                    <mxGeometry x="-81.92009132420092" y="388.46130030959756" width="415" height="84" as="geometry"/>
                </mxCell>
                <mxCell id="220" value="" style="verticalLabelPosition=bottom;verticalAlign=top;html=1;shape=mxgraph.basic.arc;startAngle=0.32911718263066786;endAngle=0.5549968787625692;fillStyle=hatch;strokeColor=#000000;strokeWidth=4;fontFamily=Comic Sans MS;fontSize=60;fontColor=#000000;fillColor=#FFFFFF;rotation=-225;" vertex="1" parent="1">
                    <mxGeometry x="1041.6499999999999" y="430" width="157.92" height="148" as="geometry"/>
                </mxCell>
                <mxCell id="221" value="$$\alpha$$" style="text;html=1;strokeColor=none;fillColor=none;align=center;verticalAlign=middle;whiteSpace=wrap;rounded=0;strokeWidth=3;fontSize=60;" vertex="1" parent="1">
                    <mxGeometry x="906.9912765957449" y="468.33" width="93.19148936170214" height="48.694690821377414" as="geometry"/>
                </mxCell>
                <mxCell id="222" value="" style="endArrow=classic;html=1;strokeColor=#000000;strokeWidth=4;" edge="1" parent="1">
                    <mxGeometry width="50" height="50" relative="1" as="geometry">
                        <mxPoint x="972.71" y="497.64" as="sourcePoint"/>
                        <mxPoint x="1050.71" y="483.64" as="targetPoint"/>
                    </mxGeometry>
                </mxCell>
            </root>
        </mxGraphModel>
    </diagram>
</mxfile>